<mxfile host="app.diagrams.net" modified="2022-11-10T08:57:09.220Z" agent="5.0 (Windows NT 10.0; Win64; x64) AppleWebKit/537.36 (KHTML, like Gecko) Chrome/107.0.0.0 Safari/537.36" etag="h2JSqv9WUH1fiWtvGpVy" version="20.5.3" type="github">
  <diagram id="1DbBrXok-eayOASBbbNL" name="Page-1">
    <mxGraphModel dx="1899" dy="1144" grid="0" gridSize="10" guides="1" tooltips="1" connect="1" arrows="1" fold="1" page="1" pageScale="1" pageWidth="1920" pageHeight="1200" math="0" shadow="0">
      <root>
        <mxCell id="0" />
        <mxCell id="1" parent="0" />
        <mxCell id="u4oz6Wz9DPNiABfFj8v_-9" style="edgeStyle=orthogonalEdgeStyle;rounded=0;orthogonalLoop=1;jettySize=auto;html=1;exitX=0.5;exitY=0.5;exitDx=0;exitDy=0;exitPerimeter=0;" edge="1" parent="1" source="u4oz6Wz9DPNiABfFj8v_-2" target="u4oz6Wz9DPNiABfFj8v_-5">
          <mxGeometry relative="1" as="geometry" />
        </mxCell>
        <mxCell id="u4oz6Wz9DPNiABfFj8v_-12" style="edgeStyle=orthogonalEdgeStyle;rounded=0;orthogonalLoop=1;jettySize=auto;html=1;exitX=0.5;exitY=0.5;exitDx=0;exitDy=0;exitPerimeter=0;entryX=0;entryY=0.5;entryDx=0;entryDy=0;" edge="1" parent="1" source="u4oz6Wz9DPNiABfFj8v_-2" target="u4oz6Wz9DPNiABfFj8v_-11">
          <mxGeometry relative="1" as="geometry" />
        </mxCell>
        <mxCell id="u4oz6Wz9DPNiABfFj8v_-2" value="Ügyfél" style="shape=umlActor;verticalLabelPosition=bottom;verticalAlign=top;html=1;" vertex="1" parent="1">
          <mxGeometry x="351" y="618" width="66.5" height="133" as="geometry" />
        </mxCell>
        <mxCell id="u4oz6Wz9DPNiABfFj8v_-5" value="Kölcsönzés&lt;br&gt;" style="ellipse;whiteSpace=wrap;html=1;" vertex="1" parent="1">
          <mxGeometry x="727" y="568.5" width="140" height="70" as="geometry" />
        </mxCell>
        <mxCell id="u4oz6Wz9DPNiABfFj8v_-6" value="Adatbázis kezelő" style="ellipse;whiteSpace=wrap;html=1;" vertex="1" parent="1">
          <mxGeometry x="1010" y="660.5" width="140" height="70" as="geometry" />
        </mxCell>
        <mxCell id="u4oz6Wz9DPNiABfFj8v_-7" value="Adatbázis" style="shape=umlActor;verticalLabelPosition=bottom;verticalAlign=top;html=1;" vertex="1" parent="1">
          <mxGeometry x="1353" y="629" width="66.5" height="133" as="geometry" />
        </mxCell>
        <mxCell id="u4oz6Wz9DPNiABfFj8v_-11" value="Visszahoz" style="ellipse;whiteSpace=wrap;html=1;" vertex="1" parent="1">
          <mxGeometry x="727" y="751" width="140" height="70" as="geometry" />
        </mxCell>
        <mxCell id="u4oz6Wz9DPNiABfFj8v_-13" value="Számlázás" style="ellipse;whiteSpace=wrap;html=1;" vertex="1" parent="1">
          <mxGeometry x="727" y="430" width="140" height="70" as="geometry" />
        </mxCell>
        <mxCell id="u4oz6Wz9DPNiABfFj8v_-14" value="Extends" style="endArrow=block;endSize=16;endFill=0;html=1;rounded=0;exitX=0.5;exitY=1;exitDx=0;exitDy=0;entryX=0.5;entryY=0;entryDx=0;entryDy=0;" edge="1" parent="1" source="u4oz6Wz9DPNiABfFj8v_-13" target="u4oz6Wz9DPNiABfFj8v_-5">
          <mxGeometry width="160" relative="1" as="geometry">
            <mxPoint x="1148" y="920" as="sourcePoint" />
            <mxPoint x="1308" y="920" as="targetPoint" />
          </mxGeometry>
        </mxCell>
        <mxCell id="u4oz6Wz9DPNiABfFj8v_-15" value="" style="endArrow=block;dashed=1;endFill=0;endSize=12;html=1;rounded=0;exitX=1;exitY=0.5;exitDx=0;exitDy=0;entryX=0;entryY=0.5;entryDx=0;entryDy=0;" edge="1" parent="1" source="u4oz6Wz9DPNiABfFj8v_-5" target="u4oz6Wz9DPNiABfFj8v_-6">
          <mxGeometry width="160" relative="1" as="geometry">
            <mxPoint x="1148" y="920" as="sourcePoint" />
            <mxPoint x="1308" y="920" as="targetPoint" />
          </mxGeometry>
        </mxCell>
        <mxCell id="u4oz6Wz9DPNiABfFj8v_-16" value="" style="endArrow=block;dashed=1;endFill=0;endSize=12;html=1;rounded=0;exitX=1;exitY=0.5;exitDx=0;exitDy=0;entryX=0;entryY=0.5;entryDx=0;entryDy=0;" edge="1" parent="1" source="u4oz6Wz9DPNiABfFj8v_-11" target="u4oz6Wz9DPNiABfFj8v_-6">
          <mxGeometry width="160" relative="1" as="geometry">
            <mxPoint x="870" y="720" as="sourcePoint" />
            <mxPoint x="1013" y="812" as="targetPoint" />
          </mxGeometry>
        </mxCell>
        <mxCell id="u4oz6Wz9DPNiABfFj8v_-21" style="edgeStyle=orthogonalEdgeStyle;rounded=0;orthogonalLoop=1;jettySize=auto;html=1;" edge="1" parent="1" source="u4oz6Wz9DPNiABfFj8v_-17" target="u4oz6Wz9DPNiABfFj8v_-19">
          <mxGeometry relative="1" as="geometry" />
        </mxCell>
        <mxCell id="u4oz6Wz9DPNiABfFj8v_-17" value="Kezelőpult" style="shape=umlActor;verticalLabelPosition=bottom;verticalAlign=top;html=1;" vertex="1" parent="1">
          <mxGeometry x="356" y="320" width="66.5" height="133" as="geometry" />
        </mxCell>
        <mxCell id="u4oz6Wz9DPNiABfFj8v_-18" value="" style="endArrow=block;dashed=1;endFill=0;endSize=12;html=1;rounded=0;exitX=0;exitY=0;exitDx=0;exitDy=0;entryX=0.5;entryY=0.5;entryDx=0;entryDy=0;entryPerimeter=0;" edge="1" parent="1" source="u4oz6Wz9DPNiABfFj8v_-5" target="u4oz6Wz9DPNiABfFj8v_-17">
          <mxGeometry width="160" relative="1" as="geometry">
            <mxPoint x="877" y="613.5" as="sourcePoint" />
            <mxPoint x="479" y="394" as="targetPoint" />
          </mxGeometry>
        </mxCell>
        <mxCell id="u4oz6Wz9DPNiABfFj8v_-19" value="Kerekpárlista kezelése" style="ellipse;whiteSpace=wrap;html=1;" vertex="1" parent="1">
          <mxGeometry x="727" y="271" width="140" height="70" as="geometry" />
        </mxCell>
        <mxCell id="u4oz6Wz9DPNiABfFj8v_-20" value="" style="endArrow=block;dashed=1;endFill=0;endSize=12;html=1;rounded=0;exitX=1;exitY=0.5;exitDx=0;exitDy=0;entryX=0.429;entryY=-0.007;entryDx=0;entryDy=0;entryPerimeter=0;" edge="1" parent="1" source="u4oz6Wz9DPNiABfFj8v_-19" target="u4oz6Wz9DPNiABfFj8v_-6">
          <mxGeometry width="160" relative="1" as="geometry">
            <mxPoint x="877" y="613.5" as="sourcePoint" />
            <mxPoint x="1020" y="705.5" as="targetPoint" />
          </mxGeometry>
        </mxCell>
        <mxCell id="u4oz6Wz9DPNiABfFj8v_-22" value="Ügyféllista kezelése" style="ellipse;whiteSpace=wrap;html=1;" vertex="1" parent="1">
          <mxGeometry x="749" y="77" width="140" height="70" as="geometry" />
        </mxCell>
        <mxCell id="u4oz6Wz9DPNiABfFj8v_-23" value="Extends" style="endArrow=block;endSize=16;endFill=0;html=1;rounded=0;exitX=0.5;exitY=1;exitDx=0;exitDy=0;entryX=0.5;entryY=0;entryDx=0;entryDy=0;" edge="1" parent="1" source="u4oz6Wz9DPNiABfFj8v_-22" target="u4oz6Wz9DPNiABfFj8v_-19">
          <mxGeometry width="160" relative="1" as="geometry">
            <mxPoint x="792" y="455" as="sourcePoint" />
            <mxPoint x="952" y="455" as="targetPoint" />
          </mxGeometry>
        </mxCell>
        <mxCell id="u4oz6Wz9DPNiABfFj8v_-24" value="Karbantartás" style="ellipse;whiteSpace=wrap;html=1;" vertex="1" parent="1">
          <mxGeometry x="567" y="90" width="140" height="70" as="geometry" />
        </mxCell>
        <mxCell id="u4oz6Wz9DPNiABfFj8v_-25" value="Extends" style="endArrow=block;endSize=16;endFill=0;html=1;rounded=0;exitX=0.764;exitY=0.957;exitDx=0;exitDy=0;entryX=0.293;entryY=0.057;entryDx=0;entryDy=0;entryPerimeter=0;exitPerimeter=0;" edge="1" parent="1" source="u4oz6Wz9DPNiABfFj8v_-24" target="u4oz6Wz9DPNiABfFj8v_-19">
          <mxGeometry width="160" relative="1" as="geometry">
            <mxPoint x="813" y="155" as="sourcePoint" />
            <mxPoint x="839.06" y="281" as="targetPoint" />
          </mxGeometry>
        </mxCell>
        <mxCell id="u4oz6Wz9DPNiABfFj8v_-26" value="" style="endArrow=block;dashed=1;endFill=0;endSize=12;html=1;rounded=0;exitX=1;exitY=0.5;exitDx=0;exitDy=0;entryX=0.5;entryY=0.5;entryDx=0;entryDy=0;entryPerimeter=0;" edge="1" parent="1" source="u4oz6Wz9DPNiABfFj8v_-6" target="u4oz6Wz9DPNiABfFj8v_-7">
          <mxGeometry width="160" relative="1" as="geometry">
            <mxPoint x="943" y="316" as="sourcePoint" />
            <mxPoint x="1146.06" y="670.01" as="targetPoint" />
          </mxGeometry>
        </mxCell>
      </root>
    </mxGraphModel>
  </diagram>
</mxfile>
